# xmcd
#
# Track frame offsets:
#	150
#	12785
#	22295
#	35552
#	50192
#	60352
#	73582
#	84340
#	97345
#	109692
#	123025
#	133435
#	143765
#	156232
#	171005
#	181667
#	186347
#	192770
#	197285
#	210755
#
# Disc length: 2994 seconds
# Revision: 0
# Processed by: cddbd v1.5.2PL0 Copyright (c) Steve Scherf et al.
# Submitted via: dBpowerAMP V12.0
#
DISCID=140bb014
DTITLE=Various Artist - Louisiana Legendary Blues, Vol. 1
DYEAR=1900
DGENRE=Blues
TTITLE0=Lightnin' Slim - Black Cat Blues
TTITLE1=Lightnin' Slim - Bugger Bugger Boy
TTITLE2=Lightnin' Slim - Love Me For Myself
TTITLE3=Lonesome Sundown - My Home Is A Prison
TTITLE4=Lonesome Sundown - I've Got A Broken Heart Baby
TTITLE5=Lonesome Sundown - I Never Thought
TTITLE6=Jimmy Anderson - I Wanna Boogie
TTITLE7=Jimmy Anderson - Angel Please
TTITLE8=Jimmy Dotson - I Wanna Know
TTITLE9=Lazy Lester - Poor Boy Blues
TTITLE10=Lazy Lester - I'm Leavin
TTITLE11=Lazy Lester - Quit Foolin Myself
TTITLE12=Lazy Lester - A Woman
TTITLE13=Henry Gray - Cold Chills
TTITLE14=Henry Gray - Lucky Lucky Man
TTITLE15=Lightning Slim - Miss Sandy Brown
TTITLE16=Lightning Slim - Tell Me Baby
TTITLE17=Lightning Slim - Walk The Streets All Night
TTITLE18=Slim Harpo - Things Gonna Change
TTITLE19=Slim Harpo - I'm A King Bee
EXTD=
EXTT0=
EXTT1=
EXTT2=
EXTT3=
EXTT4=
EXTT5=
EXTT6=
EXTT7=
EXTT8=
EXTT9=
EXTT10=
EXTT11=
EXTT12=
EXTT13=
EXTT14=
EXTT15=
EXTT16=
EXTT17=
EXTT18=
EXTT19=
PLAYORDER=
